<?xml version="1.0"?>
<svg width="136" height="136" xmlns="http://www.w3.org/2000/svg" xmlns:svg="http://www.w3.org/2000/svg" enable-background="new 0 0 136 136" version="1.1" xml:space="preserve">
 <g class="layer">
  <title>Layer 1</title>
  <path d="m75,137c-23.98,0 -47.46,-0.03 -70.93,0.05c-2.34,0.01 -3.15,-0.31 -3.15,-2.98c0.11,-43.29 0.09,-86.59 0.06,-129.88c0,-2.04 -0.16,-3.29 2.82,-3.28c43.46,0.13 86.92,0.13 130.38,0c2.96,-0.01 2.85,1.2 2.84,3.27c-0.03,43.29 -0.05,86.59 0.05,129.88c0.01,2.64 -0.76,3.01 -3.12,2.99c-19.49,-0.09 -38.97,-0.05 -58.95,-0.05z" fill="#FDFDFD" id="svg_1" opacity="1"/>
  <path d="m80.09,13.35c0.17,-0.54 0.25,-0.68 0.33,-0.83c1.4,-2.72 1.65,-6.87 5,-7.43c2.73,-0.46 3.1,3.35 4.28,5.4c1.99,3.46 1.81,6.66 -1.76,9.15c-0.22,0.15 -0.25,0.57 -0.53,1.25c5.26,-0.62 5.85,2.38 5.63,6.57c-0.27,4.96 -1.77,11.25 0.61,14.57c2.31,3.22 8.99,0.61 13.73,1.03c5.7,0.52 9.08,3.9 9.33,9.72c0.17,4.15 0.04,8.32 0.03,12.49c0,1.16 0.16,2.94 -0.96,3.11c-3.55,0.54 -2.52,3.07 -2.78,5.2c-0.5,4 0.31,6.32 4.94,7.61c5.45,1.52 7.9,6.33 7.98,12.01c0.09,7.16 0.04,14.32 0.02,21.48c-0.01,2.18 -0.18,3.81 2.87,4.66c3.87,1.07 6.02,8.79 4.17,12.56c-0.91,1.84 -2.57,1.19 -3.95,1.2c-8.65,0.06 -17.32,0.03 -25.97,0.03c-30.65,0 -61.29,0.05 -91.93,-0.1c-2.08,-0.01 -5.26,1.9 -6.32,-1.8c-1.4,-4.89 0.22,-10.82 3.95,-11.74c3.72,-0.91 3.21,-3.03 3.21,-5.46c0,-6.83 -0.06,-13.66 0.03,-20.49c0.09,-6.94 3.28,-11.11 9.9,-13.29c1.23,-0.4 3.47,0.14 2.94,-2.26c-0.66,-3 1.89,-6.62 -1.48,-8.96c-0.97,-0.68 -2.16,-0.95 -2.15,-2.3c0.03,-5.48 -0.23,-11.01 0.34,-16.44c0.46,-4.31 3.95,-6.3 7.98,-7.15c0.8,-0.17 1.65,-0.07 2.49,-0.08c4.13,-0.09 9.67,1.42 12.05,-0.67c2.78,-2.45 0.61,-8.12 0.9,-12.38c0.08,-1.16 0.15,-2.35 -0.01,-3.49c-0.54,-3.94 0.84,-6.08 5.24,-5.48c-3.88,-6.24 -3.8,-9.06 -0.05,-14.43c1.6,-2.3 2.8,-2.4 4.47,-0.06c4.25,5.97 4.27,9.03 -0.54,14.35c5.39,-0.63 6.18,2.28 5.84,6.5c-0.31,3.81 0.21,7.68 -0.15,11.48c-0.34,3.71 1.13,4.55 4.48,4.22c4.43,-0.43 10.28,1.82 12.97,-0.84c2.7,-2.67 0.51,-8.52 0.83,-12.96c0.27,-3.7 -2.05,-8.98 5.64,-8.34c-1.63,-2.64 -4.4,-4.14 -3.6,-7.61z" fill="#101010" id="svg_2" opacity="1"/>
  <path d="m108.68,105.48c-2.73,-1.67 -4.24,-3.78 -4.65,-6.57c-0.19,-1.31 0.02,-2.94 -1.77,-3.07c-2.1,-0.15 -2.09,1.56 -2.33,3.09c-0.67,4.32 -3.42,6.75 -7.56,7.53c-3.6,0.68 -6.52,-0.82 -8.74,-3.59c-1.05,-1.31 -1.63,-2.88 -1.63,-4.63c0,-1.3 -0.55,-2.33 -1.96,-2.41c-1.46,-0.08 -1.73,0.99 -2.07,2.25c-1.58,5.91 -4.75,9 -9.24,8.55c-4.99,-0.49 -8.32,-3.14 -8.84,-8.48c-0.12,-1.3 -0.54,-2.37 -2.01,-2.33c-1.44,0.04 -1.77,1.12 -1.92,2.41c-0.62,5.27 -3.93,7.97 -8.94,8.4c-4.44,0.38 -7.66,-2.7 -9.04,-8.16c-0.35,-1.39 -0.61,-2.73 -2.33,-2.66c-1.5,0.06 -1.48,1.35 -1.76,2.53c-1.38,5.74 -5.3,8.91 -10.03,8.28c-4.95,-0.65 -7.97,-4.44 -8.18,-10.23c-0.34,-9.55 2.7,-12.58 12.16,-12.57c27.97,0.03 55.93,0.02 83.89,-0.09c4.67,-0.02 8.15,1.57 9.94,5.92c1.91,4.67 0.37,12.33 -2.85,14.87c-3,2.37 -6.32,2.72 -10.14,0.96z" fill="#FBFBFB" id="svg_3" opacity="1"/>
  <path d="m113.02,52.52c0.02,4.25 0.02,8.06 0.02,11.95c-2.52,0.16 -3.62,-1.66 -5.03,-2.95c-5.35,-4.89 -11.61,-4.86 -16.9,0.09c-5.23,4.88 -8.49,4.9 -13.66,0.08c-5.37,-5.02 -11.52,-5.07 -16.88,-0.15c-5.37,4.94 -8.54,4.98 -13.63,0.19c-5.49,-5.18 -11.58,-5.16 -17.25,0.03c-1.3,1.2 -2.39,2.75 -4.82,2.79c0,-4.02 -0.07,-7.96 0.02,-11.9c0.08,-3.57 2,-5.62 5.59,-5.62c25.62,-0.05 51.23,-0.03 76.85,-0.02c3.35,0 5.19,1.79 5.69,5.51z" fill="#FCFCFC" id="svg_4" opacity="1"/>
  <path d="m64,79.92c-10.98,0 -21.46,-0.09 -31.94,0.06c-2.79,0.04 -3.84,-0.72 -3.67,-3.61c0.28,-4.51 -0.86,-9.12 4.11,-12.39c4.19,-2.76 7.89,-3.19 11.66,0.16c7.37,6.56 11.86,6.58 18.94,0.09c3.71,-3.41 7.84,-3.46 11.55,-0.15c7.45,6.65 11.83,6.74 18.92,0.19c2.73,-2.52 5.96,-3.69 9.09,-1.9c3.27,1.87 6.84,3.82 6.75,8.84c-0.17,8.71 0.05,8.71 -8.48,8.71c-12.14,0 -24.29,0 -36.93,0z" fill="#FAFAFA" id="svg_5" opacity="1"/>
  <path d="m95.06,109.57c4.46,-2.19 8.58,-2.28 13.19,-0.34c4.92,2.08 9.34,0.56 13.67,-2.01c0.93,11.4 0.93,11.4 -9.75,11.4c-30.1,0 -60.21,-0.12 -90.31,0.11c-4.84,0.04 -7.24,-0.83 -6.27,-6.13c0.29,-1.59 0.04,-3.29 0.04,-5.48c7.02,4.03 13.48,4.67 19.07,-1.58c1.35,-1.51 1.81,-0.27 2.66,0.44c7.04,5.77 12.13,5.9 18.97,-0.01c1.77,-1.54 2.26,-0.73 3.46,0.31c6.21,5.36 12.14,5.44 18.2,0.05c1.59,-1.41 2.35,-1.69 3.88,-0.02c3.48,3.82 7.98,4.43 13.19,3.26z" fill="#F1F1F1" id="svg_6" opacity="1"/>
  <path d="m103,122.17c7.5,0 14.5,0.05 21.49,-0.04c3.22,-0.03 5.04,1.23 5.26,4.57c0.13,1.99 -0.37,3.27 -2.71,3.06c-0.99,-0.1 -2,-0.02 -3,-0.02c-36.82,0 -73.63,0.03 -110.45,-0.09c-1.92,0 -5.47,1.99 -5.47,-2.62c0.01,-4.03 2.4,-4.91 5.92,-4.9c29.48,0.06 58.97,0.04 88.96,0.04z" fill="#EAEAEA" id="svg_7" opacity="1"/>
  <path d="m56.06,30.08c0,3.46 -0.16,6.45 0.05,9.41c0.19,2.69 -0.55,3.66 -3.46,3.68c-3.03,0.02 -4.11,-0.72 -3.83,-3.84c0.29,-3.28 0.04,-6.6 0.07,-9.91c0.01,-2.34 -0.82,-4.73 3.42,-4.74c4.28,-0.01 3.88,2.24 3.75,5.4z" fill="#FFFFFF" id="svg_8" opacity="1"/>
  <path d="m85.97,24.86c2.37,-0.26 3.14,0.45 3.09,2.47c-0.13,4.32 -0.23,8.67 0.02,12.99c0.21,3.39 -1.96,2.65 -3.85,2.75c-2,0.1 -3.53,0.1 -3.37,-2.74c0.23,-4.15 0.28,-8.34 -0.02,-12.49c-0.23,-3.17 1.52,-3.11 4.13,-2.98z" fill="#FFFFFF" id="svg_9" opacity="1"/>
  <path d="m51.99,16.22c-2.18,-2.15 -0.91,-3.71 0.51,-5.53c1.02,2.05 3.19,3.83 -0.51,5.53z" fill="#E4E4E4" id="svg_10" opacity="1"/>
  <path d="m87.01,13.44c0.33,1.77 -0.14,2.78 -1.56,2.87c-0.82,0.05 -1.59,-0.57 -1.58,-1.55c0.01,-1.48 0.19,-2.98 1.73,-3.68c0.12,-0.06 0.87,1.26 1.41,2.36z" fill="#E3E3E3" id="svg_11" opacity="1"/>
 </g>
</svg>