<?xml version="1.0"?>
<svg width="136" height="136" xmlns="http://www.w3.org/2000/svg" xmlns:svg="http://www.w3.org/2000/svg" enable-background="new 0 0 136 136" version="1.1" xml:space="preserve">
 <g class="layer">
  <title>Layer 1</title>
  <path d="m77,137c-25.64,0 -50.79,0 -75.97,0c0,-45.27 0,-90.54 0,-135.9c45.2,0 90.42,0 135.81,0c0,45.23 0,90.57 0,135.9c-19.71,0 -39.52,0 -59.84,0m-52.44,-15c5.64,-0.49 11.59,1.44 16.5,-3.5c25.97,-26.12 52.08,-52.09 78.11,-78.15c1.13,-1.13 2.57,-2.63 2.63,-4.01c0.29,-6.25 0.13,-12.51 0.13,-19.07c-5.86,0 -11.04,-0.4 -16.11,0.16c-2.57,0.29 -5.48,1.76 -7.34,3.6c-24.88,24.61 -49.48,49.51 -74.44,74.04c-8,7.87 -7.45,16.99 -6.29,26.93c2.21,0 4.03,0 6.81,0m85.92,-0.04c3.76,0 7.52,0 11.21,0c0,-23.02 0,-45.37 0,-69.11c-2.64,2.89 -4.16,5.34 -6.35,6.81c-9.4,6.34 -11.15,15.29 -10.07,25.79c0.66,6.37 0.12,12.86 0.12,19.78c-1.87,0 -3.16,0.01 -4.44,0c-7.14,-0.06 -14.28,0.08 -21.41,-0.23c-12.36,-0.53 -18.08,8.63 -25.54,16.96c19.02,0 37.25,0 56.48,0m-92.59,-50.47c0,4.58 0,9.16 0,13.37c4.3,-3.97 8.88,-7.57 12.59,-11.91c1.95,-2.28 3.21,-5.81 3.36,-8.85c0.44,-8.63 0.28,-17.3 0.09,-25.94c-0.07,-3.33 1.1,-4.29 4.33,-4.23c8.98,0.19 17.97,0.11 26.95,0.03c1.61,-0.01 3.77,0.1 4.72,-0.83c5.01,-4.89 9.72,-10.08 14.48,-15.12c-21.93,0 -43.98,0 -66.52,0c0,17.65 0,35.06 0,53.48z" fill="#FEFDFD" id="svg_1" opacity="1"/>
  <path d="m24.08,122c-2.3,0 -4.12,0 -6.33,0c-1.16,-9.94 -1.71,-19.06 6.29,-26.93c24.96,-24.53 49.56,-49.43 74.44,-74.04c1.86,-1.84 4.77,-3.31 7.34,-3.6c5.07,-0.56 10.25,-0.16 16.11,-0.16c0,6.56 0.16,12.82 -0.13,19.07c-0.06,1.38 -1.5,2.88 -2.63,4.01c-26.03,26.06 -52.14,52.03 -78.11,78.15c-4.91,4.94 -10.86,3.01 -16.98,3.5z" fill="#C8AA6E" id="svg_2" opacity="1"/>
  <path d="m109.98,121.96c-18.73,0 -36.96,0 -55.98,0c7.46,-8.33 13.18,-17.49 25.54,-16.96c7.13,0.31 14.27,0.17 21.41,0.23c1.28,0.01 2.57,0 4.44,0c0,-6.92 0.54,-13.41 -0.12,-19.78c-1.08,-10.5 0.67,-19.45 10.07,-25.79c2.19,-1.47 3.71,-3.92 6.35,-6.81c0,23.74 0,46.09 0,69.11c-3.69,0 -7.45,0 -11.71,0z" fill="#654E29" id="svg_3" opacity="1"/>
  <path d="m17.89,70.99c0,-17.92 0,-35.33 0,-52.98c22.54,0 44.59,0 66.52,0c-4.76,5.04 -9.47,10.23 -14.48,15.12c-0.95,0.93 -3.11,0.82 -4.72,0.83c-8.98,0.08 -17.97,0.16 -26.95,-0.03c-3.23,-0.06 -4.4,0.9 -4.33,4.23c0.19,8.64 0.35,17.31 -0.09,25.94c-0.15,3.04 -1.41,6.57 -3.36,8.85c-3.71,4.34 -8.29,7.94 -12.59,11.91c0,-4.21 0,-8.79 0,-13.87z" fill="#634C27" id="svg_4" opacity="1"/>
 </g>
</svg>