<?xml version="1.0"?>
<svg width="136" height="136" xmlns="http://www.w3.org/2000/svg" xmlns:svg="http://www.w3.org/2000/svg" enable-background="new 0 0 136 136" version="1.1" xml:space="preserve">
 <g class="layer">
  <title>Layer 1</title>
  <path d="m68,137c-21.65,0 -42.79,-0.04 -63.94,0.05c-2.35,0.01 -3.14,-0.34 -3.13,-2.99c0.1,-43.29 0.11,-86.58 -0.02,-129.88c0,-2.9 0.76,-3.25 3.4,-3.25c43.13,0.1 86.25,0.1 129.38,0c2.64,0 3.4,0.35 3.4,3.26c-0.13,43.29 -0.12,86.58 -0.01,129.88c0,2.65 -0.8,2.99 -3.14,2.98c-21.81,-0.09 -43.63,-0.05 -65.94,-0.05z" fill="#010000" id="svg_1" opacity="1"/>
  <path d="m64.29,91.39c-3.05,-3.21 -2.65,-5.96 -0.32,-9.14c4.42,-6.02 8.55,-12.26 12.73,-18.45c0.9,-1.33 2.61,-2.78 1.96,-4.31c-0.75,-1.73 -2.95,-0.92 -4.51,-0.92c-14.65,-0.07 -29.31,-0.1 -43.96,-0.02c-5.61,0.03 -10.46,-1.6 -14.45,-5.59c-0.81,-0.8 -1.99,-1.52 -1.46,-2.89c0.55,-1.44 1.97,-0.99 3.05,-0.99c9.65,-0.07 19.31,-0.1 28.97,-0.11c19.81,-0.01 39.61,0 60.44,0c-2.62,4.81 -6.31,7.34 -10.43,8.52c-3.4,0.98 -5.4,2.88 -7.21,5.53c-6.29,9.2 -12.75,18.29 -18.86,27.61c-1.85,2.83 -3.31,3.44 -5.95,0.76z" fill="#D92131" id="svg_2" opacity="1"/>
  <path d="m123.18,53.08c-8.49,12.37 -16.73,24.47 -25.15,36.44c-1.15,1.64 -1.82,5.61 -5.37,2.85c-2.91,-2.28 -5.13,-4.98 -2.41,-8.9c4.46,-6.42 9,-12.79 13.29,-19.32c1.16,-1.77 4.09,-3.38 1.71,-6.29c-0.15,-0.17 0.25,-0.86 0.49,-1.25c2.93,-4.8 11.54,-8.65 17.08,-7.65c3.95,0.71 0.74,2.49 0.36,4.12z" fill="#D62231" id="svg_3" opacity="1"/>
  <path d="m55.99,73.2c-3.97,-0.04 -7.47,0.16 -10.91,-0.2c-2.43,-0.26 -4.8,-1.27 -6.1,-4.76c9.99,0 19.65,-0.01 29.3,0.02c0.86,0 1.81,0.31 1.38,1.44c-0.59,1.53 -1.29,3.27 -3.24,3.37c-3.31,0.17 -6.63,0.1 -10.43,0.13z" fill="#C32634" id="svg_4" opacity="1"/>
  <path d="m31.8,63.41c-3.95,-2.68 -0.77,-2.35 0.92,-2.36c10.64,-0.06 21.28,-0.03 31.92,-0.04c3.28,0 6.56,0 10.23,0c-0.86,3.01 -1.64,5.08 -4.94,5.05c-10.97,-0.08 -21.94,0.01 -32.91,-0.07c-1.25,-0.01 -2.51,-0.71 -4.07,-1.34c-0.22,-0.5 -0.13,-0.74 0.27,-1.22c10.53,0.44 20.74,-0.77 29.23,-0.46c-8.44,-0.46 -18.62,1.15 -29.18,0.09c-0.63,0.08 -0.88,0.13 -1.47,0.35z" fill="#BE2C35" id="svg_5" opacity="1"/>
  <path d="m51.17,79.3c-1.45,-1.05 -2.8,-1.73 -3.16,-4.15c4.46,0 8.67,-0.11 12.87,0.07c1.34,0.06 3.9,-1.26 3.82,1.39c-0.06,1.74 -1.23,3.95 -3.59,4.14c-3.27,0.27 -6.6,0.56 -9.94,-1.45z" fill="#BC2734" id="svg_6" opacity="1"/>
  <path d="m32.77,64.24c-0.47,0.1 -0.76,-0.04 -1.17,-0.47c-0.15,-0.2 0.2,-0.5 0.38,-0.65c0.57,-0.35 0.92,-0.28 1.19,0.36c-0.02,0.3 -0.27,0.61 -0.4,0.76z" fill="#BE2C35" id="svg_7" opacity="1"/>
  <path d="m33.56,63.85c-0.64,-0.23 -0.87,-0.41 -1.25,-0.74c3.66,-1.85 7.69,-0.96 11.63,-1.01c9.02,-0.13 18.05,-0.04 27.09,0.94c-12.36,0.25 -24.63,3.04 -37.47,0.81z" fill="#E32032" id="svg_8" opacity="1"/>
 </g>
</svg>